<!-- Generated by IcoMoon.io -->
<svg version="1.1" xmlns="http://www.w3.org/2000/svg" width="20" height="20" viewBox="0 0 20 20">
<title>google</title>
<rect fill="#fff" x="0" y="0" width="20" height="20"></rect>
<path fill="#445162" d="M5.63 7.594c0 0.815 0.272 1.403 0.808 1.748 0.44 0.284 0.949 0.326 1.214 0.326 0.064 0 0.116-0.003 0.152-0.005 0 0-0.084 0.548 0.322 1.089h-0.019c-0.703 0-2.996 0.147-2.996 2.033 0 1.918 2.106 2.015 2.529 2.015 0.033 0 0.053-0.001 0.053-0.001 0.004 0 0.034 0.001 0.086 0.001 0.271 0 0.972-0.034 1.623-0.351 0.844-0.409 1.273-1.123 1.273-2.119 0-0.962-0.652-1.535-1.129-1.954-0.291-0.256-0.542-0.476-0.542-0.691 0-0.218 0.184-0.382 0.416-0.59 0.376-0.335 0.73-0.814 0.73-1.718 0-0.795-0.103-1.329-0.739-1.667 0.066-0.034 0.301-0.058 0.416-0.075 0.344-0.047 0.848-0.1 0.848-0.381v-0.054h-2.509c-0.025 0.001-2.537 0.094-2.537 2.394zM9.68 12.51c0.048 0.767-0.608 1.333-1.594 1.404-1.001 0.074-1.825-0.377-1.873-1.143-0.023-0.369 0.139-0.729 0.455-1.016 0.321-0.291 0.763-0.471 1.243-0.506 0.057-0.003 0.113-0.007 0.169-0.007 0.927 0.001 1.554 0.545 1.599 1.268zM9.025 7.069c0.246 0.866-0.125 1.771-0.718 1.938-0.068 0.019-0.138 0.028-0.209 0.028-0.542 0-1.079-0.549-1.279-1.305-0.111-0.423-0.102-0.795 0.026-1.152 0.125-0.352 0.351-0.588 0.634-0.668 0.068-0.019 0.139-0.029 0.21-0.029 0.655 0 1.076 0.272 1.336 1.188zM13.273 8.909v-1.636h-1.091v1.636h-1.636v1.091h1.636v1.636h1.091v-1.636h1.636v-1.091h-1.636z"></path>
</svg>
