<!-- Generated by IcoMoon.io -->
<svg version="1.1" xmlns="http://www.w3.org/2000/svg" width="20" height="20" viewBox="0 0 20 20">
<title>linkedin</title>
<rect fill="#fff" x="0" y="0" width="20" height="20"></rect>
<path fill="#445162" d="M7.222 6.111c0 0.59-0.394 1.098-1.112 1.098-0.675 0-1.111-0.479-1.111-1.069 0-0.606 0.422-1.14 1.111-1.14s1.098 0.506 1.111 1.111zM5 15v-7.222h2.222v7.222h-2.222z"></path>
<path fill="#445162" d="M8.333 10.247c0-0.858-0.028-1.576-0.057-2.195h1.997l0.099 0.957h0.042c0.281-0.451 0.97-1.111 2.123-1.111 1.407 0 2.462 0.942 2.462 2.968v4.134h-2.222v-3.812c0-0.886-0.337-1.561-1.111-1.561-0.59 0-0.886 0.478-1.041 0.872-0.057 0.141-0.071 0.338-0.071 0.535v3.966h-2.222v-4.753z"></path>
</svg>
