<!-- Generated by IcoMoon.io -->
<svg version="1.1" xmlns="http://www.w3.org/2000/svg" width="32" height="32" viewBox="0 0 32 32">
<title>plus</title>
<rect fill="#445161" x="0" y="0" width="32" height="32"></rect>
<path fill="#fff" d="M24.438 13.75h-6.188v-6.188c0-0.311-0.252-0.563-0.563-0.563h-3.375c-0.311 0-0.563 0.252-0.563 0.563v6.188h-6.188c-0.311 0-0.563 0.252-0.563 0.563v3.375c0 0.311 0.252 0.563 0.563 0.563h6.188v6.188c0 0.311 0.252 0.563 0.563 0.563h3.375c0.311 0 0.563-0.252 0.563-0.563v-6.188h6.188c0.311 0 0.563-0.252 0.563-0.563v-3.375c0-0.311-0.252-0.563-0.563-0.563z"></path>
</svg>
