<!-- Generated by IcoMoon.io -->
<svg version="1.1" xmlns="http://www.w3.org/2000/svg" width="20" height="20" viewBox="0 0 20 20">
<title>twitter</title>
<rect fill="#fff" x="0" y="0" width="20" height="20"></rect>
<path fill="#445162" d="M13.402 8.255c0.004 0.075 0.005 0.152 0.005 0.227 0 2.32-1.765 4.995-4.994 4.995-0.992 0-1.914-0.291-2.691-0.789 0.138 0.016 0.277 0.025 0.418 0.025 0.823 0 1.579-0.281 2.18-0.751-0.768-0.014-1.416-0.521-1.639-1.219 0.107 0.020 0.217 0.031 0.33 0.031 0.16 0 0.316-0.021 0.463-0.061-0.803-0.162-1.408-0.871-1.408-1.722 0-0.007 0-0.014 0-0.022 0.237 0.132 0.508 0.211 0.795 0.22-0.471-0.315-0.781-0.852-0.781-1.461 0-0.321 0.086-0.623 0.238-0.883 0.865 1.062 2.159 1.761 3.618 1.834-0.030-0.129-0.045-0.262-0.045-0.4 0-0.969 0.785-1.754 1.755-1.754 0.505 0 0.961 0.212 1.281 0.554 0.399-0.079 0.775-0.225 1.114-0.426-0.131 0.41-0.41 0.754-0.772 0.971 0.355-0.043 0.693-0.136 1.008-0.276-0.235 0.352-0.533 0.661-0.876 0.908z"></path>
</svg>
